<svg width="15" height="14" viewBox="0 0 15 14" fill="none" xmlns="http://www.w3.org/2000/svg">
<path d="M8.87391 10.9974L7.83216 12.7333C7.78219 12.8166 7.71149 12.8855 7.62696 12.9334C7.54243 12.9812 7.44695 13.0064 7.34982 13.0064C7.25268 13.0064 7.1572 12.9812 7.07267 12.9334C6.98814 12.8855 6.91745 12.8166 6.86747 12.7333L5.82685 10.9974C5.77681 10.9141 5.70606 10.8452 5.62148 10.7974C5.5369 10.7496 5.44138 10.7245 5.34422 10.7246H1.1626C1.01341 10.7246 0.870339 10.6653 0.76485 10.5599C0.659361 10.4544 0.600098 10.3113 0.600098 10.1621V1.16211C0.600098 1.01293 0.659361 0.869851 0.76485 0.764362C0.870339 0.658873 1.01341 0.599609 1.1626 0.599609H13.5376C13.6868 0.599609 13.8299 0.658873 13.9353 0.764362C14.0408 0.869851 14.1001 1.01293 14.1001 1.16211V10.1621C14.1001 10.3113 14.0408 10.4544 13.9353 10.5599C13.8299 10.6653 13.6868 10.7246 13.5376 10.7246H9.35597C9.25891 10.7246 9.16351 10.7498 9.07903 10.7976C8.99456 10.8454 8.9239 10.9142 8.87391 10.9974V10.9974Z" stroke="#00B307" stroke-width="1.2" stroke-linecap="round" stroke-linejoin="round"/>
</svg>
